<svg width="195" height="54" viewBox="0 0 195 54" fill="none" xmlns="http://www.w3.org/2000/svg">
<path d="M33.9856 49.5633C36.6774 49.5633 39.1001 49.1229 41.2535 48.2419C43.4559 47.361 45.5359 46.1374 47.4936 44.5713L48.9618 46.1864C46.8084 48.193 43.9942 49.8815 40.5194 51.2518C37.0934 52.5733 33.3005 53.234 29.1404 53.234C20.9182 53.234 14.1642 51.0805 8.87853 46.7737C3.59283 42.4179 0.949972 35.4681 0.949972 25.9245C0.949972 17.066 3.56835 10.5568 8.80512 6.39674C14.0908 2.18776 20.9916 0.0832623 29.5075 0.0832623C32.9334 0.0832623 36.3104 0.401382 39.6384 1.03762C42.9664 1.67387 45.5848 2.45693 47.4936 3.38683L46.4658 16.0138H44.4102C43.0399 11.8537 41.1801 8.52571 38.8309 6.02968C36.5306 3.48471 33.4473 2.21223 29.5809 2.21223C25.1272 2.21223 21.9215 4.04754 19.9638 7.71817C18.0551 11.3399 17.1007 16.7724 17.1007 24.0158C17.1007 32.5806 18.3488 38.9919 20.8448 43.2499C23.3408 47.4589 27.7211 49.5633 33.9856 49.5633ZM73.5481 48.7558C73.5481 49.2942 73.646 49.6612 73.8418 49.857C74.0865 50.0038 74.5514 50.1506 75.2366 50.2975L77.8795 50.8848V52.353H54.0938V50.8848L56.8101 50.2975C57.5442 50.1506 58.0091 49.9794 58.2049 49.7836C58.4496 49.5878 58.572 49.2208 58.572 48.6824V4.63484C58.572 4.09648 58.4496 3.72942 58.2049 3.53365C58.0091 3.33789 57.5442 3.16659 56.8101 3.01976L54.0938 2.43247V0.964211H77.8795V2.43247L75.2366 3.01976C74.5514 3.11765 74.0865 3.26447 73.8418 3.46024C73.646 3.65601 73.5481 4.02307 73.5481 4.56143V24.9701H92.7822V4.56143C92.7822 4.02307 92.6599 3.65601 92.4152 3.46024C92.2194 3.26447 91.7789 3.11765 91.0938 3.01976L88.4509 2.43247V0.964211H112.237V2.43247L109.52 3.01976C108.786 3.16659 108.297 3.33789 108.052 3.53365C107.856 3.72942 107.758 4.09648 107.758 4.63484V48.6824C107.758 49.2208 107.856 49.5878 108.052 49.7836C108.297 49.9794 108.786 50.1506 109.52 50.2975L112.237 50.8848V52.353H88.4509V50.8848L91.0938 50.2975C91.7789 50.1506 92.2194 50.0038 92.4152 49.857C92.6599 49.6612 92.7822 49.2942 92.7822 48.7558V27.1725H73.5481V48.7558ZM120.807 4.63484C120.807 4.09648 120.685 3.72942 120.44 3.53365C120.245 3.33789 119.78 3.16659 119.046 3.01976L116.329 2.43247V0.964211H140.262V2.43247L137.546 3.01976C136.811 3.16659 136.322 3.33789 136.077 3.53365C135.882 3.72942 135.784 4.09648 135.784 4.63484V48.6824C135.784 49.2208 135.882 49.5878 136.077 49.7836C136.322 49.9794 136.811 50.1506 137.546 50.2975L140.262 50.8848V52.353H116.329V50.8848L119.046 50.2975C119.78 50.1506 120.245 49.9794 120.44 49.7836C120.685 49.5878 120.807 49.2208 120.807 48.6824V4.63484ZM179.592 49.5633C182.284 49.5633 184.706 49.1229 186.86 48.2419C189.062 47.361 191.142 46.1374 193.1 44.5713L194.568 46.1864C192.415 48.193 189.601 49.8815 186.126 51.2518C182.7 52.5733 178.907 53.234 174.747 53.234C166.525 53.234 159.771 51.0805 154.485 46.7737C149.199 42.4179 146.556 35.4681 146.556 25.9245C146.556 17.066 149.175 10.5568 154.412 6.39674C159.697 2.18776 166.598 0.0832623 175.114 0.0832623C178.54 0.0832623 181.917 0.401382 185.245 1.03762C188.573 1.67387 191.191 2.45693 193.1 3.38683L192.072 16.0138H190.017C188.646 11.8537 186.786 8.52571 184.437 6.02968C182.137 3.48471 179.054 2.21223 175.187 2.21223C170.734 2.21223 167.528 4.04754 165.57 7.71817C163.662 11.3399 162.707 16.7724 162.707 24.0158C162.707 32.5806 163.955 38.9919 166.451 43.2499C168.947 47.4589 173.328 49.5633 179.592 49.5633Z" fill="white"/>
</svg>
