<svg width="25" height="25" viewBox="0 0 25 25" fill="none" xmlns="http://www.w3.org/2000/svg">
<path d="M17.8361 5.96C17.5988 5.96 17.3667 6.03038 17.1694 6.16224C16.9721 6.29409 16.8183 6.48151 16.7274 6.70078C16.6366 6.92005 16.6128 7.16133 16.6591 7.39411C16.7055 7.62688 16.8197 7.8407 16.9876 8.00853C17.1554 8.17635 17.3692 8.29064 17.602 8.33694C17.8348 8.38324 18.076 8.35948 18.2953 8.26865C18.5146 8.17783 18.702 8.02402 18.8339 7.82668C18.9657 7.62934 19.0361 7.39734 19.0361 7.16C19.0361 6.84174 18.9097 6.53652 18.6846 6.31147C18.4596 6.08643 18.1544 5.96 17.8361 5.96V5.96ZM22.4361 8.38C22.4166 7.5503 22.2612 6.7294 21.9761 5.95C21.7218 5.28313 21.3261 4.67928 20.8161 4.18C20.3209 3.66743 19.7157 3.27418 19.0461 3.03C18.2687 2.73616 17.4469 2.57721 16.6161 2.56C15.5561 2.5 15.2161 2.5 12.4961 2.5C9.77609 2.5 9.43609 2.5 8.37609 2.56C7.54525 2.57721 6.72344 2.73616 5.94609 3.03C5.27777 3.27665 4.67303 3.66956 4.17609 4.18C3.66352 4.67518 3.27027 5.28044 3.02609 5.95C2.73225 6.72734 2.5733 7.54915 2.55609 8.38C2.49609 9.44 2.49609 9.78 2.49609 12.5C2.49609 15.22 2.49609 15.56 2.55609 16.62C2.5733 17.4508 2.73225 18.2727 3.02609 19.05C3.27027 19.7196 3.66352 20.3248 4.17609 20.82C4.67303 21.3304 5.27777 21.7233 5.94609 21.97C6.72344 22.2638 7.54525 22.4228 8.37609 22.44C9.43609 22.5 9.77609 22.5 12.4961 22.5C15.2161 22.5 15.5561 22.5 16.6161 22.44C17.4469 22.4228 18.2687 22.2638 19.0461 21.97C19.7157 21.7258 20.3209 21.3326 20.8161 20.82C21.3283 20.3226 21.7244 19.7182 21.9761 19.05C22.2612 18.2706 22.4166 17.4497 22.4361 16.62C22.4361 15.56 22.4961 15.22 22.4961 12.5C22.4961 9.78 22.4961 9.44 22.4361 8.38V8.38ZM20.6361 16.5C20.6288 17.1348 20.5138 17.7637 20.2961 18.36C20.1364 18.7952 19.88 19.1884 19.5461 19.51C19.2217 19.8405 18.8293 20.0964 18.3961 20.26C17.7998 20.4778 17.1709 20.5927 16.5361 20.6C15.5361 20.65 15.1661 20.66 12.5361 20.66C9.90609 20.66 9.53609 20.66 8.53609 20.6C7.87698 20.6123 7.22069 20.5108 6.59609 20.3C6.18187 20.1281 5.80745 19.8728 5.49609 19.55C5.16418 19.2287 4.91094 18.8352 4.75609 18.4C4.51195 17.7952 4.37654 17.1519 4.35609 16.5C4.35609 15.5 4.29609 15.13 4.29609 12.5C4.29609 9.87 4.29609 9.5 4.35609 8.5C4.36058 7.85105 4.47904 7.20794 4.70609 6.6C4.88214 6.17791 5.15236 5.80166 5.49609 5.5C5.79991 5.15617 6.17538 4.8831 6.59609 4.7C7.20564 4.48004 7.84809 4.36508 8.49609 4.36C9.49609 4.36 9.86609 4.3 12.4961 4.3C15.1261 4.3 15.4961 4.3 16.4961 4.36C17.1309 4.36728 17.7598 4.48225 18.3561 4.7C18.8105 4.86865 19.2184 5.14285 19.5461 5.5C19.8738 5.80718 20.1299 6.18273 20.2961 6.6C20.5183 7.20893 20.6334 7.85178 20.6361 8.5C20.6861 9.5 20.6961 9.87 20.6961 12.5C20.6961 15.13 20.6861 15.5 20.6361 16.5ZM12.4961 7.37C11.4819 7.37198 10.4911 7.67453 9.64875 8.23942C8.80644 8.80431 8.15047 9.6062 7.76373 10.5438C7.37698 11.4813 7.27682 12.5125 7.47589 13.5069C7.67496 14.5014 8.16433 15.4145 8.88217 16.131C9.60001 16.8474 10.5141 17.335 11.509 17.5321C12.5038 17.7293 13.5348 17.6271 14.4716 17.2385C15.4084 16.85 16.209 16.1924 16.7722 15.349C17.3355 14.5056 17.6361 13.5142 17.6361 12.5C17.6374 11.8251 17.5053 11.1566 17.2473 10.533C16.9894 9.9093 16.6106 9.34281 16.133 8.86605C15.6553 8.38929 15.088 8.01168 14.4639 7.75493C13.8397 7.49818 13.171 7.36736 12.4961 7.37V7.37ZM12.4961 15.83C11.8375 15.83 11.1937 15.6347 10.646 15.2688C10.0984 14.9029 9.67161 14.3828 9.41957 13.7743C9.16753 13.1659 9.10159 12.4963 9.23008 11.8503C9.35857 11.2044 9.67572 10.611 10.1414 10.1453C10.6071 9.67962 11.2005 9.36247 11.8464 9.23398C12.4924 9.1055 13.162 9.17144 13.7704 9.42348C14.3789 9.67552 14.899 10.1023 15.2649 10.65C15.6308 11.1976 15.8261 11.8414 15.8261 12.5C15.8261 12.9373 15.74 13.3703 15.5726 13.7743C15.4053 14.1783 15.16 14.5454 14.8508 14.8547C14.5415 15.1639 14.1744 15.4092 13.7704 15.5765C13.3664 15.7439 12.9334 15.83 12.4961 15.83V15.83Z" fill="white"/>
</svg>
